<?xml version="1.0" encoding="UTF-8"?>
<svg id="labels" xmlns="http://www.w3.org/2000/svg" viewBox="0 0 512 512">
  <defs>
    <style>
      .cls-1 {
        fill: #fff;
      }

      .cls-2 {
        fill: #264d99;
      }
    </style>
  </defs>
  <rect class="cls-1" width="512" height="512"/>
  <g>
    <path class="cls-2" d="m221.73,199.63c-22.22,0-40.3-18.08-40.3-40.3s18.08-40.3,40.3-40.3c10.07,0,19.71,3.73,27.15,10.52,1.7,1.55,1.82,4.17.27,5.87-1.54,1.7-4.17,1.82-5.87.27-5.9-5.38-13.55-8.35-21.55-8.35-17.64,0-31.99,14.35-31.99,32s14.35,32,31.99,32c16.23,0,29.68-12.15,31.73-27.84h-31.73c-2.29,0-4.15-1.86-4.15-4.15s1.86-4.15,4.15-4.15h36.15c2.29,0,4.15,1.86,4.15,4.15,0,22.22-18.08,40.3-40.3,40.3Z"/>
    <path class="cls-2" d="m251.99,303.63h-22.14c-26.7,0-48.43-21.72-48.43-48.43s21.72-48.43,48.43-48.43h20.66c2.29,0,4.15,1.86,4.15,4.15s-1.86,4.15-4.15,4.15h-20.66c-22.12,0-40.12,18-40.12,40.12s18,40.12,40.12,40.12h22.14c2.29,0,4.15,1.86,4.15,4.15s-1.86,4.15-4.15,4.15Z"/>
    <path class="cls-2" d="m270.34,392.97c-2.29,0-4.15-1.86-4.15-4.15v-91.27c0-2.29,1.86-4.15,4.15-4.15h26.29c23.45,0,33.95,14.97,33.95,29.8,0,13.07-8.15,26.24-26.13,29.19l25.11,33.76c1.37,1.84.99,4.44-.85,5.81-1.84,1.37-4.44.99-5.81-.85l-29.6-39.78c-.94-1.26-1.09-2.94-.38-4.34.71-1.4,2.14-2.29,3.71-2.29,15.58,0,25.64-8.43,25.64-21.49s-10.07-21.49-25.64-21.49h-22.13v87.11c0,2.29-1.86,4.15-4.15,4.15Z"/>
  </g>
</svg>